<svg xmlns="http://www.w3.org/2000/svg" width="62" height="62" viewBox="0 0 62 62" fill="none"><rect width="62" height="62" rx="20" fill="#0085CA"></rect><g clip-path="url(#clip0_4821_1479)"><path d="M46.0002 30.9788C45.9975 29.9612 45.684 28.9688 45.1016 28.1344C44.5192 27.2999 43.6957 26.6634 42.7414 26.31L42.6939 26.1963C41.4539 23.1631 39.0799 20.733 36.0764 19.4225L35.6652 19.2425C35.3111 18.2912 34.6746 17.4709 33.841 16.8916C33.0074 16.3124 32.0165 16.002 31.0014 16.002C29.9863 16.002 28.9955 16.3124 28.1619 16.8916C27.3283 17.4709 26.6917 18.2912 26.3377 19.2425L25.8152 19.4775C22.8384 20.8296 20.4954 23.2746 19.2714 26.3063C18.3156 26.6545 17.4895 27.2874 16.9045 28.1197C16.3195 28.9519 16.0036 29.9435 15.9996 30.9607C15.9955 31.978 16.3033 32.9721 16.8816 33.809C17.46 34.6459 18.2809 35.2854 19.2339 35.6413L19.3939 36.0163C20.6481 38.9274 22.9515 41.2602 25.8464 42.5513L26.3377 42.7713C26.6927 43.7213 27.3295 44.5402 28.1628 45.1183C28.996 45.6964 29.986 46.0062 31.0002 46.0062C32.0144 46.0062 33.0043 45.6964 33.8376 45.1183C34.6709 44.5402 35.3076 43.7213 35.6627 42.7713L36.1214 42.5676C39.1497 41.2135 41.5304 38.7318 42.7577 35.6501C43.7087 35.293 44.5284 34.6547 45.1076 33.8202C45.6869 32.9858 45.9982 31.9946 46.0002 30.9788ZM31.0002 18.5C31.4946 18.5 31.978 18.6467 32.3891 18.9214C32.8002 19.1961 33.1207 19.5865 33.3099 20.0433C33.4991 20.5002 33.5486 21.0028 33.4522 21.4878C33.3557 21.9727 33.1176 22.4182 32.768 22.7678C32.4183 23.1174 31.9729 23.3555 31.4879 23.452C31.003 23.5485 30.5003 23.499 30.0435 23.3097C29.5867 23.1205 29.1962 22.8001 28.9215 22.389C28.6468 21.9779 28.5002 21.4945 28.5002 21C28.5002 20.337 28.7636 19.7011 29.2324 19.2323C29.7013 18.7634 30.3371 18.5 31.0002 18.5ZM20.9852 28.4813L21.0877 28.52L21.1002 28.4888C21.7266 28.5448 22.3056 28.8455 22.7118 29.3256C23.118 29.8057 23.3186 30.4266 23.2701 31.0536C23.2216 31.6806 22.9279 32.2632 22.4528 32.6751C21.9776 33.0871 21.3592 33.2952 20.7317 33.2542C20.1041 33.2133 19.518 32.9267 19.1003 32.4565C18.6827 31.9863 18.4672 31.3705 18.5006 30.7425C18.5339 30.1145 18.8134 29.525 19.2786 29.1017C19.7437 28.6784 20.3568 28.4555 20.9852 28.4813ZM31.0002 43.5001C30.5057 43.5001 30.0224 43.3534 29.6113 43.0787C29.2001 42.804 28.8797 42.4136 28.6905 41.9568C28.5013 41.4999 28.4518 40.9973 28.5482 40.5123C28.6447 40.0274 28.8828 39.5819 29.2324 39.2323C29.5821 38.8827 30.0275 38.6446 30.5125 38.5481C30.9974 38.4516 31.5001 38.5011 31.9569 38.6904C32.4137 38.8796 32.8042 39.2 33.0789 39.6111C33.3536 40.0222 33.5002 40.5056 33.5002 41C33.5002 41.6631 33.2368 42.299 32.768 42.7678C32.2991 43.2367 31.6632 43.5001 31.0002 43.5001ZM35.8664 39.8926C35.6176 38.7876 35.0002 37.8002 34.1157 37.0927C33.2311 36.3852 32.1322 35.9998 30.9996 35.9998C29.8669 35.9998 28.768 36.3852 27.8835 37.0927C26.999 37.8002 26.3815 38.7876 26.1327 39.8926C24.4259 38.9612 23.0237 37.5577 22.0939 35.85C23.1955 35.6012 24.1799 34.9859 24.8864 34.1049C25.5929 33.2239 25.9796 32.1293 25.9832 31C25.9868 29.8707 25.6072 28.7736 24.9064 27.8881C24.2056 27.0026 23.2251 26.381 22.1252 26.125C23.0584 24.4415 24.4474 23.0551 26.1327 22.125C26.3826 23.2288 27.0003 24.2148 27.8844 24.9212C28.7686 25.6275 29.8666 26.0123 30.9983 26.0123C32.13 26.0123 33.228 25.6275 34.1122 24.9212C34.9963 24.2148 35.6141 23.2288 35.8639 22.125C37.548 23.0541 38.9378 24.4369 39.8752 26.1163C38.7719 26.3683 37.7871 26.9879 37.0824 27.8734C36.3778 28.7589 35.9951 29.8577 35.9973 30.9894C35.9995 32.1211 36.3864 33.2184 37.0944 34.1012C37.8025 34.984 38.7897 35.5998 39.8939 35.8475C38.9611 37.5497 37.5646 38.9524 35.8664 39.8926ZM41.0002 33.4788C40.5057 33.4788 40.0224 33.3322 39.6113 33.0575C39.2001 32.7828 38.8797 32.3923 38.6905 31.9355C38.5013 31.4787 38.4518 30.976 38.5482 30.4911C38.6447 30.0061 38.8828 29.5607 39.2324 29.211C39.5821 28.8614 40.0275 28.6233 40.5125 28.5268C40.9974 28.4304 41.5001 28.4799 41.9569 28.6691C42.4137 28.8583 42.8042 29.1788 43.0789 29.5899C43.3536 30.001 43.5002 30.4843 43.5002 30.9788C43.5002 31.6418 43.2368 32.2777 42.768 32.7466C42.2991 33.2154 41.6632 33.4788 41.0002 33.4788Z" fill="#E6F3FA"></path></g><defs><clipPath id="clip0_4821_1479"><rect width="30" height="30" fill="white" transform="translate(16 16)"></rect></clipPath></defs></svg>